<svg width="368" height="100" viewBox="0 0 368 100" fill="none" xmlns="http://www.w3.org/2000/svg">
<rect width="100" height="100" rx="50" fill="#D9D9D9"/>
<path d="M53.4492 40.5068C53.4492 41.6787 53.2376 42.875 52.8145 44.0957C52.4076 45.3001 51.846 46.4964 51.1299 47.6846C50.4137 48.8564 49.5755 49.9876 48.6152 51.0781C47.6549 52.1686 46.6377 53.1777 45.5635 54.1055C44.4893 55.0332 43.3743 55.8633 42.2188 56.5957C41.0632 57.3118 39.9401 57.8815 38.8496 58.3047C38.6706 58.0443 38.4427 57.735 38.166 57.377C37.9056 57.0026 37.6208 56.6201 37.3115 56.2295C37.0023 55.8226 36.6849 55.4238 36.3594 55.0332C36.0501 54.6263 35.749 54.252 35.4561 53.9102C37.7835 52.9987 39.8669 51.9163 41.7061 50.6631C43.5615 49.4098 45.1322 48.0996 46.418 46.7324C47.7201 45.349 48.7129 43.9574 49.3965 42.5576C50.0964 41.1416 50.4463 39.8232 50.4463 38.6025C50.4463 38.4398 50.4219 38.2689 50.373 38.0898C50.3242 37.9108 50.2428 37.7562 50.1289 37.626C50.015 37.4958 49.8604 37.4062 49.665 37.3574C49.486 37.2923 49.2663 37.2923 49.0059 37.3574C48.2409 37.5202 47.3945 37.8213 46.4668 38.2607C45.5553 38.7002 44.5869 39.2536 43.5615 39.9209C42.5524 40.5719 41.4945 41.3288 40.3877 42.1914C39.2972 43.054 38.1904 43.9818 37.0674 44.9746C36.4652 46.8626 35.7734 48.8646 34.9922 50.9805C34.2109 53.0801 33.3646 55.1797 32.4531 57.2793C31.5417 59.3626 30.5814 61.389 29.5723 63.3584C28.5794 65.3278 27.5622 67.1344 26.5205 68.7783C25.4951 70.4059 24.4616 71.8138 23.4199 73.002C22.3945 74.2064 21.4017 75.069 20.4414 75.5898C20.1973 75.7201 19.8962 75.8421 19.5381 75.9561C19.1963 76.07 18.765 76.1514 18.2441 76.2002C18.0488 76.2165 17.821 76.1351 17.5605 75.9561C17.2839 75.777 17.0072 75.5492 16.7305 75.2725C16.4538 74.9958 16.1771 74.6865 15.9004 74.3447C15.6237 74.0029 15.3714 73.6774 15.1436 73.3682C14.8994 73.0589 14.7041 72.7822 14.5576 72.5381C14.3949 72.2939 14.2891 72.1312 14.2402 72.0498C14.11 71.8057 14.0449 71.5127 14.0449 71.1709C14.0286 70.8454 14.0612 70.5199 14.1426 70.1943C14.4681 69.1038 14.9238 67.9076 15.5098 66.6055C16.0957 65.3034 16.7874 63.9443 17.585 62.5283C18.3662 61.096 19.237 59.6312 20.1973 58.1338C21.1738 56.6201 22.2155 55.1227 23.3223 53.6416C24.4453 52.1442 25.6172 50.6712 26.8379 49.2227C28.0749 47.7741 29.3444 46.3906 30.6465 45.0723C31.4766 42.4844 32.1602 40.0348 32.6973 37.7236C33.2344 35.4124 33.5518 33.4023 33.6494 31.6934C34.3005 31.9538 34.9189 32.2874 35.5049 32.6943C36.0908 33.1012 36.6198 33.5244 37.0918 33.9639C37.5638 34.4033 37.9788 34.8428 38.3369 35.2822C38.695 35.7217 38.9798 36.1123 39.1914 36.4541C39.1589 36.7308 39.1182 37.0156 39.0693 37.3086C39.0205 37.5853 38.9554 37.8864 38.874 38.2119C40.5179 37.154 42.1292 36.332 43.708 35.7461C45.3031 35.1439 46.8493 34.8428 48.3467 34.8428C48.6559 34.8428 48.9896 34.9404 49.3477 35.1357C49.722 35.3311 50.0964 35.5915 50.4707 35.917C50.8451 36.2262 51.2031 36.5762 51.5449 36.9668C51.903 37.3574 52.2204 37.7562 52.4971 38.1631C52.7738 38.5537 52.9935 38.9281 53.1562 39.2861C53.3353 39.6279 53.4329 39.9128 53.4492 40.1406V40.5068ZM18.0977 71.1953C18.472 71.1953 18.9766 70.7803 19.6113 69.9502C20.2461 69.1201 20.9541 67.9889 21.7354 66.5566C22.5329 65.1243 23.3711 63.4561 24.25 61.5518C25.1289 59.6475 25.9997 57.6292 26.8623 55.4971C25.5765 57.027 24.3802 58.5407 23.2734 60.0381C22.1829 61.5355 21.2308 62.9596 20.417 64.3105C19.6195 65.6452 18.9928 66.8822 18.5371 68.0215C18.0814 69.1445 17.8535 70.1048 17.8535 70.9023C17.8535 71.0977 17.9349 71.1953 18.0977 71.1953ZM84.4062 40.5068C84.4062 41.6787 84.1947 42.875 83.7715 44.0957C83.3646 45.3001 82.8031 46.4964 82.0869 47.6846C81.3708 48.8564 80.5326 49.9876 79.5723 51.0781C78.612 52.1686 77.5947 53.1777 76.5205 54.1055C75.4463 55.0332 74.3314 55.8633 73.1758 56.5957C72.0202 57.3118 70.8971 57.8815 69.8066 58.3047C69.6276 58.0443 69.3997 57.735 69.123 57.377C68.8626 57.0026 68.5778 56.6201 68.2686 56.2295C67.9593 55.8226 67.6419 55.4238 67.3164 55.0332C67.0072 54.6263 66.7061 54.252 66.4131 53.9102C68.7406 52.9987 70.8239 51.9163 72.6631 50.6631C74.5186 49.4098 76.0892 48.0996 77.375 46.7324C78.6771 45.349 79.6699 43.9574 80.3535 42.5576C81.0534 41.1416 81.4033 39.8232 81.4033 38.6025C81.4033 38.4398 81.3789 38.2689 81.3301 38.0898C81.2812 37.9108 81.1999 37.7562 81.0859 37.626C80.972 37.4958 80.8174 37.4062 80.6221 37.3574C80.443 37.2923 80.2233 37.2923 79.9629 37.3574C79.1979 37.5202 78.3516 37.8213 77.4238 38.2607C76.5124 38.7002 75.5439 39.2536 74.5186 39.9209C73.5094 40.5719 72.4515 41.3288 71.3447 42.1914C70.2542 43.054 69.1475 43.9818 68.0244 44.9746C67.4222 46.8626 66.7305 48.8646 65.9492 50.9805C65.168 53.0801 64.3216 55.1797 63.4102 57.2793C62.4987 59.3626 61.5384 61.389 60.5293 63.3584C59.5365 65.3278 58.5192 67.1344 57.4775 68.7783C56.4521 70.4059 55.4186 71.8138 54.377 73.002C53.3516 74.2064 52.3587 75.069 51.3984 75.5898C51.1543 75.7201 50.8532 75.8421 50.4951 75.9561C50.1533 76.07 49.722 76.1514 49.2012 76.2002C49.0059 76.2165 48.778 76.1351 48.5176 75.9561C48.2409 75.777 47.9642 75.5492 47.6875 75.2725C47.4108 74.9958 47.1341 74.6865 46.8574 74.3447C46.5807 74.0029 46.3285 73.6774 46.1006 73.3682C45.8564 73.0589 45.6611 72.7822 45.5146 72.5381C45.3519 72.2939 45.2461 72.1312 45.1973 72.0498C45.0671 71.8057 45.002 71.5127 45.002 71.1709C44.9857 70.8454 45.0182 70.5199 45.0996 70.1943C45.4251 69.1038 45.8809 67.9076 46.4668 66.6055C47.0527 65.3034 47.7445 63.9443 48.542 62.5283C49.3232 61.096 50.194 59.6312 51.1543 58.1338C52.1309 56.6201 53.1725 55.1227 54.2793 53.6416C55.4023 52.1442 56.5742 50.6712 57.7949 49.2227C59.0319 47.7741 60.3014 46.3906 61.6035 45.0723C62.4336 42.4844 63.1172 40.0348 63.6543 37.7236C64.1914 35.4124 64.5088 33.4023 64.6064 31.6934C65.2575 31.9538 65.876 32.2874 66.4619 32.6943C67.0479 33.1012 67.5768 33.5244 68.0488 33.9639C68.5208 34.4033 68.9359 34.8428 69.2939 35.2822C69.652 35.7217 69.9368 36.1123 70.1484 36.4541C70.1159 36.7308 70.0752 37.0156 70.0264 37.3086C69.9775 37.5853 69.9124 37.8864 69.8311 38.2119C71.4749 37.154 73.0863 36.332 74.665 35.7461C76.2601 35.1439 77.8063 34.8428 79.3037 34.8428C79.613 34.8428 79.9466 34.9404 80.3047 35.1357C80.679 35.3311 81.0534 35.5915 81.4277 35.917C81.8021 36.2262 82.1602 36.5762 82.502 36.9668C82.86 37.3574 83.1774 37.7562 83.4541 38.1631C83.7308 38.5537 83.9505 38.9281 84.1133 39.2861C84.2923 39.6279 84.39 39.9128 84.4062 40.1406V40.5068ZM49.0547 71.1953C49.429 71.1953 49.9336 70.7803 50.5684 69.9502C51.2031 69.1201 51.9111 67.9889 52.6924 66.5566C53.4899 65.1243 54.3281 63.4561 55.207 61.5518C56.0859 59.6475 56.9567 57.6292 57.8193 55.4971C56.5335 57.027 55.3372 58.5407 54.2305 60.0381C53.14 61.5355 52.1878 62.9596 51.374 64.3105C50.5765 65.6452 49.9499 66.8822 49.4941 68.0215C49.0384 69.1445 48.8105 70.1048 48.8105 70.9023C48.8105 71.0977 48.8919 71.1953 49.0547 71.1953Z" fill="black"/>
<path d="M152.449 38.5068C152.449 39.6787 152.238 40.875 151.814 42.0957C151.408 43.3001 150.846 44.4964 150.13 45.6846C149.414 46.8564 148.576 47.9876 147.615 49.0781C146.655 50.1686 145.638 51.1777 144.563 52.1055C143.489 53.0332 142.374 53.8633 141.219 54.5957C140.063 55.3118 138.94 55.8815 137.85 56.3047C137.671 56.0443 137.443 55.735 137.166 55.377C136.906 55.0026 136.621 54.6201 136.312 54.2295C136.002 53.8226 135.685 53.4238 135.359 53.0332C135.05 52.6263 134.749 52.252 134.456 51.9102C136.784 50.9987 138.867 49.9163 140.706 48.6631C142.562 47.4098 144.132 46.0996 145.418 44.7324C146.72 43.349 147.713 41.9574 148.396 40.5576C149.096 39.1416 149.446 37.8232 149.446 36.6025C149.446 36.4398 149.422 36.2689 149.373 36.0898C149.324 35.9108 149.243 35.7562 149.129 35.626C149.015 35.4958 148.86 35.4062 148.665 35.3574C148.486 35.2923 148.266 35.2923 148.006 35.3574C147.241 35.5202 146.395 35.8213 145.467 36.2607C144.555 36.7002 143.587 37.2536 142.562 37.9209C141.552 38.5719 140.494 39.3288 139.388 40.1914C138.297 41.054 137.19 41.9818 136.067 42.9746C135.465 44.8626 134.773 46.8646 133.992 48.9805C133.211 51.0801 132.365 53.1797 131.453 55.2793C130.542 57.3626 129.581 59.389 128.572 61.3584C127.579 63.3278 126.562 65.1344 125.521 66.7783C124.495 68.4059 123.462 69.8138 122.42 71.002C121.395 72.2064 120.402 73.069 119.441 73.5898C119.197 73.7201 118.896 73.8421 118.538 73.9561C118.196 74.07 117.765 74.1514 117.244 74.2002C117.049 74.2165 116.821 74.1351 116.561 73.9561C116.284 73.777 116.007 73.5492 115.73 73.2725C115.454 72.9958 115.177 72.6865 114.9 72.3447C114.624 72.0029 114.371 71.6774 114.144 71.3682C113.899 71.0589 113.704 70.7822 113.558 70.5381C113.395 70.2939 113.289 70.1312 113.24 70.0498C113.11 69.8057 113.045 69.5127 113.045 69.1709C113.029 68.8454 113.061 68.5199 113.143 68.1943C113.468 67.1038 113.924 65.9076 114.51 64.6055C115.096 63.3034 115.787 61.9443 116.585 60.5283C117.366 59.096 118.237 57.6312 119.197 56.1338C120.174 54.6201 121.215 53.1227 122.322 51.6416C123.445 50.1442 124.617 48.6712 125.838 47.2227C127.075 45.7741 128.344 44.3906 129.646 43.0723C130.477 40.4844 131.16 38.0348 131.697 35.7236C132.234 33.4124 132.552 31.4023 132.649 29.6934C133.3 29.9538 133.919 30.2874 134.505 30.6943C135.091 31.1012 135.62 31.5244 136.092 31.9639C136.564 32.4033 136.979 32.8428 137.337 33.2822C137.695 33.7217 137.98 34.1123 138.191 34.4541C138.159 34.7308 138.118 35.0156 138.069 35.3086C138.021 35.5853 137.955 35.8864 137.874 36.2119C139.518 35.154 141.129 34.332 142.708 33.7461C144.303 33.1439 145.849 32.8428 147.347 32.8428C147.656 32.8428 147.99 32.9404 148.348 33.1357C148.722 33.3311 149.096 33.5915 149.471 33.917C149.845 34.2262 150.203 34.5762 150.545 34.9668C150.903 35.3574 151.22 35.7562 151.497 36.1631C151.774 36.5537 151.993 36.9281 152.156 37.2861C152.335 37.6279 152.433 37.9128 152.449 38.1406V38.5068ZM117.098 69.1953C117.472 69.1953 117.977 68.7803 118.611 67.9502C119.246 67.1201 119.954 65.9889 120.735 64.5566C121.533 63.1243 122.371 61.4561 123.25 59.5518C124.129 57.6475 125 55.6292 125.862 53.4971C124.576 55.027 123.38 56.5407 122.273 58.0381C121.183 59.5355 120.231 60.9596 119.417 62.3105C118.619 63.6452 117.993 64.8822 117.537 66.0215C117.081 67.1445 116.854 68.1048 116.854 68.9023C116.854 69.0977 116.935 69.1953 117.098 69.1953ZM161.751 62.9941C160.254 64.459 158.838 65.6878 157.503 66.6807C156.185 67.6735 154.923 68.471 153.719 69.0732C152.514 69.6755 151.359 70.1068 150.252 70.3672C149.161 70.6276 148.095 70.7578 147.054 70.7578C146.614 70.7578 146.126 70.5951 145.589 70.2695C145.052 69.944 144.555 69.5452 144.1 69.0732C143.628 68.6175 143.237 68.1374 142.928 67.6328C142.618 67.1283 142.464 66.6969 142.464 66.3389C142.464 65.0042 142.651 63.7835 143.025 62.6768C143.383 61.5537 143.864 60.5446 144.466 59.6494C145.068 58.7542 145.752 57.9648 146.517 57.2812C147.298 56.5977 148.104 56.028 148.934 55.5723C149.78 55.1165 150.618 54.7747 151.448 54.5469C152.278 54.319 153.043 54.2051 153.743 54.2051C154.248 54.2051 154.744 54.3516 155.232 54.6445C155.737 54.9375 156.193 55.2956 156.6 55.7188C157.007 56.1419 157.332 56.5895 157.576 57.0615C157.837 57.5173 157.967 57.916 157.967 58.2578C157.967 58.8112 157.731 59.3809 157.259 59.9668C156.803 60.5365 156.152 61.1224 155.306 61.7246C154.459 62.3268 153.442 62.9453 152.254 63.5801C151.066 64.1986 149.756 64.8252 148.323 65.46C148.274 65.8506 148.25 66.2331 148.25 66.6074C148.25 67.112 148.356 67.4538 148.567 67.6328C148.795 67.8118 149.21 67.9014 149.812 67.9014C150.887 67.9014 151.896 67.7223 152.84 67.3643C153.8 67.0062 154.72 66.5423 155.599 65.9727C156.478 65.403 157.324 64.752 158.138 64.0195C158.951 63.2871 159.757 62.5465 160.555 61.7979L161.751 62.9941ZM153.157 56.8906C152.832 56.8906 152.474 57.0697 152.083 57.4277C151.692 57.7695 151.302 58.2253 150.911 58.7949C150.521 59.3646 150.146 60.0238 149.788 60.7725C149.43 61.5049 149.121 62.2699 148.86 63.0674C149.463 62.6768 150.049 62.2617 150.618 61.8223C151.204 61.3828 151.725 60.9271 152.181 60.4551C152.636 59.9668 153.003 59.4704 153.279 58.9658C153.556 58.4613 153.694 57.9567 153.694 57.4521C153.694 57.3057 153.646 57.1755 153.548 57.0615C153.466 56.9476 153.336 56.8906 153.157 56.8906ZM175.179 66.29C175.179 66.6969 175.309 66.9004 175.569 66.9004C175.879 66.9004 176.245 66.8027 176.668 66.6074C177.107 66.4121 177.563 66.1598 178.035 65.8506C178.507 65.5251 178.987 65.167 179.476 64.7764C179.964 64.3857 180.42 64.0033 180.843 63.6289C181.282 63.2546 181.673 62.9046 182.015 62.5791C182.356 62.2536 182.625 61.9932 182.82 61.7979C182.983 61.9443 183.178 62.1315 183.406 62.3594C183.634 62.5872 183.838 62.7988 184.017 62.9941C183.593 63.4173 183.113 63.8893 182.576 64.4102C182.039 64.931 181.461 65.4681 180.843 66.0215C180.241 66.5586 179.606 67.0876 178.938 67.6084C178.287 68.113 177.636 68.5687 176.985 68.9756C176.334 69.3662 175.7 69.6836 175.081 69.9277C174.463 70.1719 173.877 70.2939 173.323 70.2939C173.03 70.2939 172.672 70.1556 172.249 69.8789C171.826 69.6185 171.419 69.293 171.028 68.9023C170.638 68.5117 170.304 68.1048 170.027 67.6816C169.767 67.2422 169.637 66.8516 169.637 66.5098C169.637 65.7611 169.686 64.9798 169.783 64.166C169.051 64.8171 168.343 65.4355 167.659 66.0215C166.976 66.6074 166.284 67.1608 165.584 67.6816C164.9 68.1862 164.192 68.6501 163.46 69.0732C162.744 69.5127 161.979 69.887 161.165 70.1963C160.921 70.2939 160.709 70.3428 160.53 70.3428C160.368 70.3428 160.156 70.2614 159.896 70.0986C159.635 69.9359 159.383 69.7243 159.139 69.4639C158.895 69.2197 158.683 68.943 158.504 68.6338C158.325 68.3083 158.235 67.999 158.235 67.7061C158.235 67.0387 158.366 66.2982 158.626 65.4844C158.87 64.6543 159.236 63.8079 159.725 62.9453C160.197 62.0664 160.783 61.1956 161.482 60.333C162.166 59.4541 162.947 58.6322 163.826 57.8672C164.705 57.0859 165.674 56.3861 166.731 55.7676C167.789 55.1328 168.921 54.6283 170.125 54.2539C170.353 54.2865 170.646 54.3923 171.004 54.5713C171.362 54.734 171.696 54.9049 172.005 55.084C172.591 53.4076 173.258 51.7311 174.007 50.0547C174.772 48.362 175.577 46.7425 176.424 45.1963C177.286 43.6338 178.182 42.1771 179.109 40.8262C180.037 39.459 180.965 38.2546 181.893 37.2129C182.82 36.1549 183.732 35.3005 184.627 34.6494C185.538 33.9984 186.401 33.5996 187.215 33.4531C187.573 33.4531 187.947 33.5752 188.338 33.8193C188.745 34.0472 189.127 34.332 189.485 34.6738C189.843 34.9993 190.145 35.3411 190.389 35.6992C190.649 36.0573 190.812 36.3584 190.877 36.6025C190.877 37.3512 190.69 38.222 190.315 39.2148C189.941 40.2077 189.42 41.2819 188.753 42.4375C188.102 43.5768 187.321 44.7731 186.409 46.0264C185.514 47.2796 184.546 48.5573 183.504 49.8594C182.462 51.1452 181.364 52.431 180.208 53.7168C179.069 55.0026 177.921 56.2477 176.766 57.4521C176.277 59.1123 175.887 60.6992 175.594 62.2129C175.317 63.7103 175.179 65.0693 175.179 66.29ZM187.435 36.4072C187.158 36.4072 186.816 36.6107 186.409 37.0176C186.019 37.4245 185.571 37.9941 185.066 38.7266C184.578 39.4427 184.057 40.2972 183.504 41.29C182.951 42.2829 182.389 43.3652 181.819 44.5371C181.25 45.709 180.68 46.9541 180.11 48.2725C179.541 49.5908 179.004 50.9255 178.499 52.2764C179.72 50.779 180.875 49.2816 181.966 47.7842C183.073 46.2705 184.041 44.8382 184.871 43.4873C185.701 42.1364 186.36 40.8994 186.849 39.7764C187.337 38.6533 187.581 37.7256 187.581 36.9932C187.581 36.8955 187.573 36.7734 187.557 36.627C187.557 36.4805 187.516 36.4072 187.435 36.4072ZM164.266 65.46C164.803 65.46 165.6 65.0856 166.658 64.3369C167.716 63.5719 168.912 62.5547 170.247 61.2852C170.394 60.5365 170.573 59.7796 170.784 59.0146C170.996 58.2334 171.232 57.444 171.492 56.6465C170.548 57.2812 169.62 58.0055 168.709 58.8193C167.814 59.6331 167.016 60.4388 166.316 61.2363C165.617 62.0339 165.047 62.7826 164.607 63.4824C164.184 64.166 163.973 64.6868 163.973 65.0449C163.973 65.3216 164.07 65.46 164.266 65.46ZM193.904 58.8926C193.693 59.5273 193.424 60.2516 193.099 61.0654C192.789 61.8792 192.488 62.6768 192.195 63.458C191.902 64.2393 191.65 64.9473 191.438 65.582C191.243 66.2168 191.146 66.6725 191.146 66.9492C191.146 67.0469 191.194 67.0957 191.292 67.0957C191.471 67.0957 191.74 66.9899 192.098 66.7783C192.456 66.5667 192.863 66.29 193.318 65.9482C193.79 65.6064 194.279 65.2321 194.783 64.8252C195.288 64.4183 195.768 64.0195 196.224 63.6289C196.696 63.222 197.119 62.8558 197.493 62.5303C197.868 62.2048 198.152 61.9606 198.348 61.7979C198.494 61.9443 198.665 62.1315 198.86 62.3594C199.072 62.5872 199.267 62.7988 199.446 62.9941C199.088 63.3522 198.641 63.7917 198.104 64.3125C197.566 64.8171 196.98 65.3379 196.346 65.875C195.727 66.4121 195.076 66.9492 194.393 67.4863C193.725 68.0234 193.066 68.5036 192.415 68.9268C191.78 69.3499 191.186 69.6917 190.633 69.9521C190.079 70.2126 189.616 70.3428 189.241 70.3428C188.997 70.3428 188.688 70.2533 188.313 70.0742C187.939 69.9115 187.581 69.6999 187.239 69.4395C186.897 69.1953 186.604 68.9186 186.36 68.6094C186.116 68.3001 185.994 67.999 185.994 67.7061C186.238 66.6156 186.482 65.6634 186.727 64.8496C186.971 64.0358 187.199 63.3441 187.41 62.7744C187.622 62.1885 187.809 61.7165 187.972 61.3584C188.134 61.0003 188.257 60.7318 188.338 60.5527C188.143 60.4714 187.955 60.3818 187.776 60.2842C187.597 60.1865 187.418 60.0889 187.239 59.9912C186.979 60.2679 186.686 60.5609 186.36 60.8701C186.051 61.1794 185.734 61.4886 185.408 61.7979C185.083 62.1071 184.757 62.4082 184.432 62.7012C184.106 62.9941 183.813 63.2627 183.553 63.5068L182.381 62.3105C182.804 61.9036 183.317 61.4154 183.919 60.8457C184.505 60.2598 185.083 59.6738 185.652 59.0879C185.245 58.8438 184.879 58.6159 184.554 58.4043C184.228 58.1764 183.951 57.973 183.724 57.7939C183.447 57.5986 183.203 57.4196 182.991 57.2568C182.894 57.208 182.845 57.1022 182.845 56.9395C182.845 56.7604 182.918 56.5081 183.064 56.1826C183.195 55.8408 183.366 55.4827 183.577 55.1084C183.789 54.7178 184.017 54.3271 184.261 53.9365C184.505 53.5296 184.741 53.1634 184.969 52.8379C185.197 52.5124 185.392 52.252 185.555 52.0566C185.734 51.8451 185.848 51.7393 185.896 51.7393C185.929 51.7393 186.035 51.7799 186.214 51.8613C186.409 51.9427 186.613 52.0404 186.824 52.1543C187.036 52.252 187.231 52.3659 187.41 52.4961C187.589 52.6263 187.703 52.7402 187.752 52.8379C187.768 52.9193 187.785 53.0902 187.801 53.3506C187.817 53.611 187.833 53.9284 187.85 54.3027C188.484 54.6283 189.135 55.0026 189.803 55.4258C190.47 55.8327 191.08 56.2233 191.634 56.5977C192.285 57.0208 192.903 57.4521 193.489 57.8916C193.701 58.0218 193.831 58.1846 193.88 58.3799C193.945 58.5752 193.953 58.7461 193.904 58.8926ZM201.277 66.5098C201.277 66.998 201.456 67.2422 201.814 67.2422C202.189 67.2422 202.685 66.9492 203.304 66.3633C203.922 65.7611 204.565 65.0042 205.232 64.0928C205.2 63.9137 205.175 63.7591 205.159 63.6289C205.159 63.4824 205.159 63.3522 205.159 63.2383C205.159 62.9128 205.192 62.5303 205.257 62.0908C205.338 61.6351 205.525 61.1224 205.818 60.5527C206.014 60.1133 206.25 59.682 206.526 59.2588C206.754 58.8844 207.031 58.4857 207.356 58.0625C207.682 57.623 208.04 57.2161 208.431 56.8418L208.577 56.6953C208.74 56.8906 208.951 57.1592 209.212 57.501C209.489 57.8265 209.757 58.1683 210.018 58.5264C210.294 58.8682 210.53 59.1855 210.726 59.4785C210.937 59.7715 211.067 59.9749 211.116 60.0889C211.116 60.7887 210.986 61.4886 210.726 62.1885C210.481 62.8883 210.148 63.5801 209.725 64.2637C210.701 64.1986 211.604 63.9544 212.435 63.5312C213.281 63.0918 214.16 62.3838 215.071 61.4072C215.218 61.5537 215.405 61.7572 215.633 62.0176C215.877 62.2617 216.072 62.4733 216.219 62.6523C215.535 63.3685 214.86 63.9626 214.192 64.4346C213.541 64.9066 212.882 65.2809 212.215 65.5576C211.564 65.8343 210.896 66.0378 210.213 66.168C209.529 66.2819 208.829 66.3389 208.113 66.3389C207.56 66.9248 206.966 67.4619 206.331 67.9502C205.696 68.4385 205.045 68.8617 204.378 69.2197C203.727 69.5778 203.076 69.8545 202.425 70.0498C201.774 70.2451 201.155 70.3428 200.569 70.3428C200.081 70.3428 199.576 70.1963 199.056 69.9033C198.535 69.6104 198.063 69.2523 197.64 68.8291C197.216 68.3896 196.867 67.9258 196.59 67.4375C196.313 66.9492 196.175 66.5179 196.175 66.1436C196.175 64.9066 196.346 63.6777 196.688 62.457C197.013 61.2363 197.534 60.097 198.25 59.0391C198.95 57.9648 199.845 57.0208 200.936 56.207C202.042 55.3932 203.353 54.7747 204.866 54.3516C204.915 54.319 204.996 54.2946 205.11 54.2783C205.241 54.262 205.346 54.2539 205.428 54.2539C205.656 54.2539 205.892 54.3434 206.136 54.5225C206.396 54.6852 206.632 54.8724 206.844 55.084C207.072 55.2956 207.259 55.5072 207.405 55.7188C207.552 55.9141 207.625 56.0443 207.625 56.1094C207.592 56.1908 207.47 56.2965 207.259 56.4268C207.047 56.5407 206.762 56.7441 206.404 57.0371C206.046 57.3301 205.623 57.7533 205.135 58.3066C204.646 58.8438 204.109 59.5599 203.523 60.4551C202.645 61.7734 202.05 62.9697 201.741 64.0439C201.432 65.1019 201.277 65.9238 201.277 66.5098ZM262.605 38.5068C262.605 39.6787 262.394 40.875 261.971 42.0957C261.564 43.3001 261.002 44.4964 260.286 45.6846C259.57 46.8564 258.732 47.9876 257.771 49.0781C256.811 50.1686 255.794 51.1777 254.72 52.1055C253.646 53.0332 252.531 53.8633 251.375 54.5957C250.219 55.3118 249.096 55.8815 248.006 56.3047C247.827 56.0443 247.599 55.735 247.322 55.377C247.062 55.0026 246.777 54.6201 246.468 54.2295C246.159 53.8226 245.841 53.4238 245.516 53.0332C245.206 52.6263 244.905 52.252 244.612 51.9102C246.94 50.9987 249.023 49.9163 250.862 48.6631C252.718 47.4098 254.288 46.0996 255.574 44.7324C256.876 43.349 257.869 41.9574 258.553 40.5576C259.253 39.1416 259.603 37.8232 259.603 36.6025C259.603 36.4398 259.578 36.2689 259.529 36.0898C259.48 35.9108 259.399 35.7562 259.285 35.626C259.171 35.4958 259.017 35.4062 258.821 35.3574C258.642 35.2923 258.423 35.2923 258.162 35.3574C257.397 35.5202 256.551 35.8213 255.623 36.2607C254.712 36.7002 253.743 37.2536 252.718 37.9209C251.709 38.5719 250.651 39.3288 249.544 40.1914C248.453 41.054 247.347 41.9818 246.224 42.9746C245.621 44.8626 244.93 46.8646 244.148 48.9805C243.367 51.0801 242.521 53.1797 241.609 55.2793C240.698 57.3626 239.738 59.389 238.729 61.3584C237.736 63.3278 236.718 65.1344 235.677 66.7783C234.651 68.4059 233.618 69.8138 232.576 71.002C231.551 72.2064 230.558 73.069 229.598 73.5898C229.354 73.7201 229.052 73.8421 228.694 73.9561C228.353 74.07 227.921 74.1514 227.4 74.2002C227.205 74.2165 226.977 74.1351 226.717 73.9561C226.44 73.777 226.163 73.5492 225.887 73.2725C225.61 72.9958 225.333 72.6865 225.057 72.3447C224.78 72.0029 224.528 71.6774 224.3 71.3682C224.056 71.0589 223.86 70.7822 223.714 70.5381C223.551 70.2939 223.445 70.1312 223.396 70.0498C223.266 69.8057 223.201 69.5127 223.201 69.1709C223.185 68.8454 223.217 68.5199 223.299 68.1943C223.624 67.1038 224.08 65.9076 224.666 64.6055C225.252 63.3034 225.944 61.9443 226.741 60.5283C227.522 59.096 228.393 57.6312 229.354 56.1338C230.33 54.6201 231.372 53.1227 232.479 51.6416C233.602 50.1442 234.773 48.6712 235.994 47.2227C237.231 45.7741 238.501 44.3906 239.803 43.0723C240.633 40.4844 241.316 38.0348 241.854 35.7236C242.391 33.4124 242.708 31.4023 242.806 29.6934C243.457 29.9538 244.075 30.2874 244.661 30.6943C245.247 31.1012 245.776 31.5244 246.248 31.9639C246.72 32.4033 247.135 32.8428 247.493 33.2822C247.851 33.7217 248.136 34.1123 248.348 34.4541C248.315 34.7308 248.274 35.0156 248.226 35.3086C248.177 35.5853 248.112 35.8864 248.03 36.2119C249.674 35.154 251.285 34.332 252.864 33.7461C254.459 33.1439 256.006 32.8428 257.503 32.8428C257.812 32.8428 258.146 32.9404 258.504 33.1357C258.878 33.3311 259.253 33.5915 259.627 33.917C260.001 34.2262 260.359 34.5762 260.701 34.9668C261.059 35.3574 261.377 35.7562 261.653 36.1631C261.93 36.5537 262.15 36.9281 262.312 37.2861C262.492 37.6279 262.589 37.9128 262.605 38.1406V38.5068ZM227.254 69.1953C227.628 69.1953 228.133 68.7803 228.768 67.9502C229.402 67.1201 230.11 65.9889 230.892 64.5566C231.689 63.1243 232.527 61.4561 233.406 59.5518C234.285 57.6475 235.156 55.6292 236.019 53.4971C234.733 55.027 233.536 56.5407 232.43 58.0381C231.339 59.5355 230.387 60.9596 229.573 62.3105C228.776 63.6452 228.149 64.8822 227.693 66.0215C227.238 67.1445 227.01 68.1048 227.01 68.9023C227.01 69.0977 227.091 69.1953 227.254 69.1953ZM267 58.8926C266.788 59.5273 266.52 60.2516 266.194 61.0654C265.885 61.8792 265.584 62.6768 265.291 63.458C264.998 64.2393 264.746 64.9473 264.534 65.582C264.339 66.2168 264.241 66.6725 264.241 66.9492C264.241 67.0469 264.29 67.0957 264.388 67.0957C264.567 67.0957 264.835 66.9899 265.193 66.7783C265.551 66.5667 265.958 66.29 266.414 65.9482C266.886 65.6064 267.374 65.2321 267.879 64.8252C268.383 64.4183 268.864 64.0195 269.319 63.6289C269.791 63.222 270.215 62.8558 270.589 62.5303C270.963 62.2048 271.248 61.9606 271.443 61.7979C271.59 61.9443 271.761 62.1315 271.956 62.3594C272.168 62.5872 272.363 62.7988 272.542 62.9941C272.184 63.3522 271.736 63.7917 271.199 64.3125C270.662 64.8171 270.076 65.3379 269.441 65.875C268.823 66.4121 268.172 66.9492 267.488 67.4863C266.821 68.0234 266.162 68.5036 265.511 68.9268C264.876 69.3499 264.282 69.6917 263.729 69.9521C263.175 70.2126 262.711 70.3428 262.337 70.3428C262.093 70.3428 261.784 70.2533 261.409 70.0742C261.035 69.9115 260.677 69.6999 260.335 69.4395C259.993 69.1953 259.7 68.9186 259.456 68.6094C259.212 68.3001 259.09 67.999 259.09 67.7061C259.334 66.6156 259.578 65.6634 259.822 64.8496C260.066 64.0358 260.294 63.3441 260.506 62.7744C260.717 62.1885 260.905 61.7165 261.067 61.3584C261.23 61.0003 261.352 60.7318 261.434 60.5527C261.238 60.4714 261.051 60.3818 260.872 60.2842C260.693 60.1865 260.514 60.0889 260.335 59.9912C260.075 60.2679 259.782 60.5609 259.456 60.8701C259.147 61.1794 258.829 61.4886 258.504 61.7979C258.178 62.1071 257.853 62.4082 257.527 62.7012C257.202 62.9941 256.909 63.2627 256.648 63.5068L255.477 62.3105C255.9 61.9036 256.412 61.4154 257.015 60.8457C257.601 60.2598 258.178 59.6738 258.748 59.0879C258.341 58.8438 257.975 58.6159 257.649 58.4043C257.324 58.1764 257.047 57.973 256.819 57.7939C256.543 57.5986 256.299 57.4196 256.087 57.2568C255.989 57.208 255.94 57.1022 255.94 56.9395C255.94 56.7604 256.014 56.5081 256.16 56.1826C256.29 55.8408 256.461 55.4827 256.673 55.1084C256.884 54.7178 257.112 54.3271 257.356 53.9365C257.601 53.5296 257.837 53.1634 258.064 52.8379C258.292 52.5124 258.488 52.252 258.65 52.0566C258.829 51.8451 258.943 51.7393 258.992 51.7393C259.025 51.7393 259.131 51.7799 259.31 51.8613C259.505 51.9427 259.708 52.0404 259.92 52.1543C260.132 52.252 260.327 52.3659 260.506 52.4961C260.685 52.6263 260.799 52.7402 260.848 52.8379C260.864 52.9193 260.88 53.0902 260.896 53.3506C260.913 53.611 260.929 53.9284 260.945 54.3027C261.58 54.6283 262.231 55.0026 262.898 55.4258C263.566 55.8327 264.176 56.2233 264.729 56.5977C265.381 57.0208 265.999 57.4521 266.585 57.8916C266.797 58.0218 266.927 58.1846 266.976 58.3799C267.041 58.5752 267.049 58.7461 267 58.8926ZM288.362 62.9941C286.865 64.459 285.449 65.6878 284.114 66.6807C282.796 67.6735 281.535 68.471 280.33 69.0732C279.126 69.6755 277.97 70.1068 276.863 70.3672C275.773 70.6276 274.707 70.7578 273.665 70.7578C273.226 70.7578 272.737 70.5951 272.2 70.2695C271.663 69.944 271.167 69.5452 270.711 69.0732C270.239 68.6175 269.848 68.1374 269.539 67.6328C269.23 67.1283 269.075 66.6969 269.075 66.3389C269.075 65.0042 269.262 63.7835 269.637 62.6768C269.995 61.5537 270.475 60.5446 271.077 59.6494C271.679 58.7542 272.363 57.9648 273.128 57.2812C273.909 56.5977 274.715 56.028 275.545 55.5723C276.391 55.1165 277.229 54.7747 278.06 54.5469C278.89 54.319 279.655 54.2051 280.354 54.2051C280.859 54.2051 281.355 54.3516 281.844 54.6445C282.348 54.9375 282.804 55.2956 283.211 55.7188C283.618 56.1419 283.943 56.5895 284.188 57.0615C284.448 57.5173 284.578 57.916 284.578 58.2578C284.578 58.8112 284.342 59.3809 283.87 59.9668C283.414 60.5365 282.763 61.1224 281.917 61.7246C281.071 62.3268 280.053 62.9453 278.865 63.5801C277.677 64.1986 276.367 64.8252 274.935 65.46C274.886 65.8506 274.861 66.2331 274.861 66.6074C274.861 67.112 274.967 67.4538 275.179 67.6328C275.407 67.8118 275.822 67.9014 276.424 67.9014C277.498 67.9014 278.507 67.7223 279.451 67.3643C280.411 67.0062 281.331 66.5423 282.21 65.9727C283.089 65.403 283.935 64.752 284.749 64.0195C285.563 63.2871 286.368 62.5465 287.166 61.7979L288.362 62.9941ZM279.769 56.8906C279.443 56.8906 279.085 57.0697 278.694 57.4277C278.304 57.7695 277.913 58.2253 277.522 58.7949C277.132 59.3646 276.757 60.0238 276.399 60.7725C276.041 61.5049 275.732 62.2699 275.472 63.0674C276.074 62.6768 276.66 62.2617 277.229 61.8223C277.815 61.3828 278.336 60.9271 278.792 60.4551C279.248 59.9668 279.614 59.4704 279.891 58.9658C280.167 58.4613 280.306 57.9567 280.306 57.4521C280.306 57.3057 280.257 57.1755 280.159 57.0615C280.078 56.9476 279.948 56.8906 279.769 56.8906ZM286.727 62.2617C287.101 61.9036 287.532 61.4967 288.021 61.041C288.493 60.5853 288.965 60.0889 289.437 59.5518C289.925 59.0146 290.372 58.4368 290.779 57.8184C291.202 57.1999 291.536 56.5326 291.78 55.8164C291.845 55.4421 291.943 55.0514 292.073 54.6445C292.22 54.2214 292.374 53.8389 292.537 53.4971C292.716 53.1553 292.887 52.8704 293.05 52.6426C293.213 52.4147 293.359 52.3008 293.489 52.3008C293.685 52.4147 293.978 52.6344 294.368 52.96C294.759 53.2692 295.149 53.6029 295.54 53.9609C295.931 54.319 296.272 54.6527 296.565 54.9619C296.875 55.2549 297.029 55.4339 297.029 55.499C296.834 56.2477 296.736 56.9232 296.736 57.5254C296.753 58.1276 296.801 58.7217 296.883 59.3076C296.98 59.8936 297.078 60.5202 297.176 61.1875C297.29 61.8385 297.347 62.5954 297.347 63.458C297.347 63.9788 297.257 64.5811 297.078 65.2646C296.915 65.932 296.622 66.5342 296.199 67.0713C297.029 66.583 297.851 66.0378 298.665 65.4355C299.479 64.8171 300.203 64.2393 300.838 63.7021C301.587 63.0674 302.303 62.4326 302.986 61.7979L304.085 62.9941C303.548 63.4987 302.962 64.0358 302.327 64.6055C301.709 65.1751 301.058 65.7367 300.374 66.29C299.707 66.8434 299.023 67.3724 298.323 67.877C297.623 68.3815 296.932 68.8291 296.248 69.2197C295.564 69.6104 294.905 69.9196 294.271 70.1475C293.636 70.3753 293.042 70.4893 292.488 70.4893C292.016 70.4893 291.495 70.3753 290.926 70.1475C290.356 69.9196 289.819 69.6429 289.314 69.3174C288.81 68.9919 288.37 68.6501 287.996 68.292C287.622 67.9339 287.402 67.6328 287.337 67.3887C287.337 67.3561 287.369 67.291 287.435 67.1934C287.5 67.0794 287.581 66.9655 287.679 66.8516C287.76 66.7376 287.85 66.64 287.947 66.5586C288.029 66.4609 288.094 66.4121 288.143 66.4121C288.24 66.4121 288.436 66.4854 288.729 66.6318C289.021 66.7783 289.51 66.8516 290.193 66.8516C290.568 66.8516 290.885 66.7539 291.146 66.5586C291.422 66.3633 291.65 66.1029 291.829 65.7773C292.008 65.4518 292.138 65.0775 292.22 64.6543C292.301 64.2311 292.342 63.7835 292.342 63.3115C292.342 62.6279 292.309 61.9688 292.244 61.334C292.179 60.6829 292.106 60.0563 292.024 59.4541C291.748 59.7796 291.43 60.1214 291.072 60.4795C290.714 60.8376 290.348 61.1956 289.974 61.5537C289.616 61.8955 289.249 62.2373 288.875 62.5791C288.517 62.9046 288.191 63.1976 287.898 63.458L286.727 62.2617ZM305.916 66.5098C305.916 66.998 306.095 67.2422 306.453 67.2422C306.827 67.2422 307.324 66.9492 307.942 66.3633C308.561 65.7611 309.204 65.0042 309.871 64.0928C309.839 63.9137 309.814 63.7591 309.798 63.6289C309.798 63.4824 309.798 63.3522 309.798 63.2383C309.798 62.9128 309.83 62.5303 309.896 62.0908C309.977 61.6351 310.164 61.1224 310.457 60.5527C310.652 60.1133 310.888 59.682 311.165 59.2588C311.393 58.8844 311.67 58.4857 311.995 58.0625C312.321 57.623 312.679 57.2161 313.069 56.8418L313.216 56.6953C313.379 56.8906 313.59 57.1592 313.851 57.501C314.127 57.8265 314.396 58.1683 314.656 58.5264C314.933 58.8682 315.169 59.1855 315.364 59.4785C315.576 59.7715 315.706 59.9749 315.755 60.0889C315.755 60.7887 315.625 61.4886 315.364 62.1885C315.12 62.8883 314.786 63.5801 314.363 64.2637C315.34 64.1986 316.243 63.9544 317.073 63.5312C317.92 63.0918 318.799 62.3838 319.71 61.4072C319.856 61.5537 320.044 61.7572 320.271 62.0176C320.516 62.2617 320.711 62.4733 320.857 62.6523C320.174 63.3685 319.498 63.9626 318.831 64.4346C318.18 64.9066 317.521 65.2809 316.854 65.5576C316.202 65.8343 315.535 66.0378 314.852 66.168C314.168 66.2819 313.468 66.3389 312.752 66.3389C312.199 66.9248 311.604 67.4619 310.97 67.9502C310.335 68.4385 309.684 68.8617 309.017 69.2197C308.366 69.5778 307.715 69.8545 307.063 70.0498C306.412 70.2451 305.794 70.3428 305.208 70.3428C304.72 70.3428 304.215 70.1963 303.694 69.9033C303.174 69.6104 302.701 69.2523 302.278 68.8291C301.855 68.3896 301.505 67.9258 301.229 67.4375C300.952 66.9492 300.813 66.5179 300.813 66.1436C300.813 64.9066 300.984 63.6777 301.326 62.457C301.652 61.2363 302.173 60.097 302.889 59.0391C303.589 57.9648 304.484 57.0208 305.574 56.207C306.681 55.3932 307.991 54.7747 309.505 54.3516C309.554 54.319 309.635 54.2946 309.749 54.2783C309.879 54.262 309.985 54.2539 310.066 54.2539C310.294 54.2539 310.53 54.3434 310.774 54.5225C311.035 54.6852 311.271 54.8724 311.482 55.084C311.71 55.2956 311.897 55.5072 312.044 55.7188C312.19 55.9141 312.264 56.0443 312.264 56.1094C312.231 56.1908 312.109 56.2965 311.897 56.4268C311.686 56.5407 311.401 56.7441 311.043 57.0371C310.685 57.3301 310.262 57.7533 309.773 58.3066C309.285 58.8438 308.748 59.5599 308.162 60.4551C307.283 61.7734 306.689 62.9697 306.38 64.0439C306.071 65.1019 305.916 65.9238 305.916 66.5098ZM321.761 70.3428C321.484 70.3428 321.118 70.2126 320.662 69.9521C320.223 69.708 319.791 69.3988 319.368 69.0244C318.945 68.6663 318.579 68.292 318.27 67.9014C317.96 67.5107 317.806 67.1771 317.806 66.9004C317.806 66.4121 317.944 65.639 318.221 64.5811C318.481 63.5231 318.831 62.3187 319.271 60.9678C319.71 59.6006 320.206 58.1439 320.76 56.5977C321.329 55.0514 321.899 53.5378 322.469 52.0566H319.026H319.002C318.986 52.0566 318.978 52.0404 318.978 52.0078C318.978 51.9102 319.018 51.7718 319.1 51.5928C319.165 51.3975 319.254 51.2021 319.368 51.0068C319.466 50.7952 319.588 50.6081 319.734 50.4453C319.865 50.2663 319.995 50.1523 320.125 50.1035L323.299 49.957C323.755 48.8503 324.186 47.833 324.593 46.9053C325.016 45.9613 325.39 45.1556 325.716 44.4883C325.797 44.3092 325.879 44.1221 325.96 43.9268C326.058 43.7152 326.188 43.5117 326.351 43.3164C326.53 43.1048 326.757 42.8932 327.034 42.6816C327.327 42.4538 327.718 42.2259 328.206 41.998C328.564 41.819 328.995 41.6237 329.5 41.4121C330.021 41.2005 330.525 41.0052 331.014 40.8262C331.518 40.6471 331.974 40.5007 332.381 40.3867C332.788 40.2565 333.081 40.1914 333.26 40.1914C333.423 40.1914 333.504 40.224 333.504 40.2891V40.3379C333.504 40.3542 333.488 40.3949 333.455 40.46C333.357 40.6227 333.178 40.9808 332.918 41.5342C332.658 42.0713 332.332 42.7549 331.941 43.585C331.567 44.3988 331.144 45.3346 330.672 46.3926C330.216 47.4342 329.744 48.541 329.256 49.7129L335.115 49.4932C335.278 49.4932 335.327 49.5908 335.262 49.7861C335.197 49.9814 335.075 50.2093 334.896 50.4697C334.716 50.7301 334.505 50.9987 334.261 51.2754C334.033 51.5521 333.838 51.7637 333.675 51.9102C333.642 51.9427 333.577 51.9753 333.479 52.0078C333.382 52.0404 333.26 52.0566 333.113 52.0566H328.279C327.693 53.4727 327.132 54.9049 326.595 56.3535C326.058 57.8021 325.577 59.1774 325.154 60.4795C324.731 61.7816 324.389 62.9779 324.129 64.0684C323.885 65.1589 323.763 66.054 323.763 66.7539C323.763 66.8516 323.812 66.9004 323.909 66.9004C324.088 66.9004 324.357 66.8027 324.715 66.6074C325.073 66.3958 325.472 66.1273 325.911 65.8018C326.367 65.4762 326.847 65.1182 327.352 64.7275C327.856 64.3369 328.336 63.9544 328.792 63.5801C329.248 63.1895 329.655 62.8395 330.013 62.5303C330.387 62.2048 330.672 61.9606 330.867 61.7979C331.014 61.9443 331.185 62.1315 331.38 62.3594C331.591 62.5872 331.787 62.7988 331.966 62.9941C331.608 63.3522 331.16 63.7917 330.623 64.3125C330.086 64.8171 329.5 65.3379 328.865 65.875C328.247 66.4121 327.596 66.9492 326.912 67.4863C326.245 68.0234 325.586 68.5036 324.935 68.9268C324.3 69.3499 323.706 69.6917 323.152 69.9521C322.599 70.2126 322.135 70.3428 321.761 70.3428ZM333.235 70.3428C332.959 70.3428 332.592 70.2126 332.137 69.9521C331.697 69.708 331.266 69.3988 330.843 69.0244C330.42 68.6663 330.053 68.292 329.744 67.9014C329.435 67.5107 329.28 67.1771 329.28 66.9004C329.28 66.4121 329.419 65.639 329.695 64.5811C329.956 63.5231 330.306 62.3187 330.745 60.9678C331.185 59.6006 331.681 58.1439 332.234 56.5977C332.804 55.0514 333.374 53.5378 333.943 52.0566H330.501H330.477C330.46 52.0566 330.452 52.0404 330.452 52.0078C330.452 51.9102 330.493 51.7718 330.574 51.5928C330.639 51.3975 330.729 51.2021 330.843 51.0068C330.94 50.7952 331.062 50.6081 331.209 50.4453C331.339 50.2663 331.469 50.1523 331.6 50.1035L334.773 49.957C335.229 48.8503 335.66 47.833 336.067 46.9053C336.491 45.9613 336.865 45.1556 337.19 44.4883C337.272 44.3092 337.353 44.1221 337.435 43.9268C337.532 43.7152 337.662 43.5117 337.825 43.3164C338.004 43.1048 338.232 42.8932 338.509 42.6816C338.802 42.4538 339.192 42.2259 339.681 41.998C340.039 41.819 340.47 41.6237 340.975 41.4121C341.495 41.2005 342 41.0052 342.488 40.8262C342.993 40.6471 343.449 40.5007 343.855 40.3867C344.262 40.2565 344.555 40.1914 344.734 40.1914C344.897 40.1914 344.979 40.224 344.979 40.2891V40.3379C344.979 40.3542 344.962 40.3949 344.93 40.46C344.832 40.6227 344.653 40.9808 344.393 41.5342C344.132 42.0713 343.807 42.7549 343.416 43.585C343.042 44.3988 342.618 45.3346 342.146 46.3926C341.691 47.4342 341.219 48.541 340.73 49.7129L346.59 49.4932C346.753 49.4932 346.801 49.5908 346.736 49.7861C346.671 49.9814 346.549 50.2093 346.37 50.4697C346.191 50.7301 345.979 50.9987 345.735 51.2754C345.507 51.5521 345.312 51.7637 345.149 51.9102C345.117 51.9427 345.052 51.9753 344.954 52.0078C344.856 52.0404 344.734 52.0566 344.588 52.0566H339.754C339.168 53.4727 338.606 54.9049 338.069 56.3535C337.532 57.8021 337.052 59.1774 336.629 60.4795C336.206 61.7816 335.864 62.9779 335.604 64.0684C335.359 65.1589 335.237 66.054 335.237 66.7539C335.237 66.8516 335.286 66.9004 335.384 66.9004C335.563 66.9004 335.831 66.8027 336.189 66.6074C336.548 66.3958 336.946 66.1273 337.386 65.8018C337.841 65.4762 338.322 65.1182 338.826 64.7275C339.331 64.3369 339.811 63.9544 340.267 63.5801C340.722 63.1895 341.129 62.8395 341.487 62.5303C341.862 62.2048 342.146 61.9606 342.342 61.7979C342.488 61.9443 342.659 62.1315 342.854 62.3594C343.066 62.5872 343.261 62.7988 343.44 62.9941C343.082 63.3522 342.635 63.7917 342.098 64.3125C341.561 64.8171 340.975 65.3379 340.34 65.875C339.721 66.4121 339.07 66.9492 338.387 67.4863C337.719 68.0234 337.06 68.5036 336.409 68.9268C335.774 69.3499 335.18 69.6917 334.627 69.9521C334.074 70.2126 333.61 70.3428 333.235 70.3428ZM345.271 66.5098C345.271 66.998 345.451 67.2422 345.809 67.2422C346.183 67.2422 346.679 66.9492 347.298 66.3633C347.916 65.7611 348.559 65.0042 349.227 64.0928C349.194 63.9137 349.17 63.7591 349.153 63.6289C349.153 63.4824 349.153 63.3522 349.153 63.2383C349.153 62.9128 349.186 62.5303 349.251 62.0908C349.332 61.6351 349.52 61.1224 349.812 60.5527C350.008 60.1133 350.244 59.682 350.521 59.2588C350.748 58.8844 351.025 58.4857 351.351 58.0625C351.676 57.623 352.034 57.2161 352.425 56.8418L352.571 56.6953C352.734 56.8906 352.946 57.1592 353.206 57.501C353.483 57.8265 353.751 58.1683 354.012 58.5264C354.288 58.8682 354.524 59.1855 354.72 59.4785C354.931 59.7715 355.062 59.9749 355.11 60.0889C355.11 60.7887 354.98 61.4886 354.72 62.1885C354.476 62.8883 354.142 63.5801 353.719 64.2637C354.695 64.1986 355.599 63.9544 356.429 63.5312C357.275 63.0918 358.154 62.3838 359.065 61.4072C359.212 61.5537 359.399 61.7572 359.627 62.0176C359.871 62.2617 360.066 62.4733 360.213 62.6523C359.529 63.3685 358.854 63.9626 358.187 64.4346C357.535 64.9066 356.876 65.2809 356.209 65.5576C355.558 65.8343 354.891 66.0378 354.207 66.168C353.523 66.2819 352.824 66.3389 352.107 66.3389C351.554 66.9248 350.96 67.4619 350.325 67.9502C349.69 68.4385 349.039 68.8617 348.372 69.2197C347.721 69.5778 347.07 69.8545 346.419 70.0498C345.768 70.2451 345.149 70.3428 344.563 70.3428C344.075 70.3428 343.571 70.1963 343.05 69.9033C342.529 69.6104 342.057 69.2523 341.634 68.8291C341.211 68.3896 340.861 67.9258 340.584 67.4375C340.307 66.9492 340.169 66.5179 340.169 66.1436C340.169 64.9066 340.34 63.6777 340.682 62.457C341.007 61.2363 341.528 60.097 342.244 59.0391C342.944 57.9648 343.839 57.0208 344.93 56.207C346.036 55.3932 347.347 54.7747 348.86 54.3516C348.909 54.319 348.991 54.2946 349.104 54.2783C349.235 54.262 349.34 54.2539 349.422 54.2539C349.65 54.2539 349.886 54.3434 350.13 54.5225C350.39 54.6852 350.626 54.8724 350.838 55.084C351.066 55.2956 351.253 55.5072 351.399 55.7188C351.546 55.9141 351.619 56.0443 351.619 56.1094C351.587 56.1908 351.465 56.2965 351.253 56.4268C351.041 56.5407 350.757 56.7441 350.398 57.0371C350.04 57.3301 349.617 57.7533 349.129 58.3066C348.641 58.8438 348.104 59.5599 347.518 60.4551C346.639 61.7734 346.045 62.9697 345.735 64.0439C345.426 65.1019 345.271 65.9238 345.271 66.5098Z" fill="black"/>
</svg>
